<svg width="213" height="40" viewBox="0 0 213 40" fill="none" xmlns="http://www.w3.org/2000/svg">
<path fill-rule="evenodd" clip-rule="evenodd" d="M12.0111 20.1135V15.7769L0.0228271 20.2327H0.00012207V24.6829H0.0228271L12.0111 29.1388V24.7965L5.86369 22.4465L12.0111 20.1079V20.1135Z" fill="#F7DD43"/>
<path fill-rule="evenodd" clip-rule="evenodd" d="M81.4487 28.923V24.5863L87.5904 22.2534L81.4487 19.9205V15.5838L93.4199 20.0397H93.4483V24.4955H93.4199L81.4487 28.9287V28.923ZM76.306 9.44778L69.2674 32.0449H73.4451L80.4837 9.44778H76.306Z" fill="#F7DD43"/>
<path fill-rule="evenodd" clip-rule="evenodd" d="M29.6247 15.1808C30.8167 16.4863 31.4411 18.2119 31.3673 19.9772V29.6041H27.1895V20.8627C27.2406 19.8864 26.9284 18.9328 26.3154 18.1722C25.7364 17.4967 24.8793 17.1221 23.9881 17.1618C21.3714 17.1618 20.0602 18.9782 20.0602 22.6053V29.6041H15.8824V13.8015H20.0602V15.2262C21.3884 13.9377 23.1878 13.2509 25.0382 13.3303C26.7638 13.2565 28.4326 13.932 29.6247 15.1808Z" fill="#F7DD43"/>
<path fill-rule="evenodd" clip-rule="evenodd" d="M36.6916 7.00702V29.6042H40.8693V7.00702H36.6916Z" fill="#F7DD43"/>
<path fill-rule="evenodd" clip-rule="evenodd" d="M64.4935 29.6042H61.0083L57.5912 20.2951L54.14 29.6042H50.6548L44.7969 13.7731H49.2641L52.5564 23.2411L55.9508 13.7731H59.2146L62.609 23.2695L65.9012 13.7731H70.3684L64.5049 29.6042H64.4935Z" fill="#F7DD43"/>
<path d="M116.135 39.9956C111.855 39.9956 107.357 39.1844 103.832 37.2309V2.7645C107.302 0.866213 111.799 -0.00011965 116.135 -0.00011965C120.471 -0.00011965 124.862 0.811006 128.328 2.7645V15.9888H119.601V6.99C118.573 6.55683 117.324 6.39545 116.08 6.39545C114.836 6.39545 113.693 6.55683 112.61 6.99V33.0055C113.638 33.4386 114.831 33.6 116.08 33.6C117.329 33.6 118.518 33.4386 119.601 33.0055V24.0109H128.328V37.2352C124.913 39.1335 120.416 39.9446 116.135 39.9998V39.9956Z" fill="#F7DD43"/>
<path d="M144.695 39.9955C140.087 39.9955 135.645 39.0188 132.12 37.0143V2.92581C135.59 0.976564 140.036 -0.000183105 144.695 -0.000183105C149.353 -0.000183105 153.689 0.921357 157.159 2.92581V37.0143C153.744 39.0188 149.247 39.9403 144.695 39.9955ZM148.436 7.10035C147.408 6.66718 146.16 6.4506 144.644 6.4506C143.128 6.4506 141.934 6.66718 140.902 7.10035V32.844C141.93 33.3324 143.179 33.549 144.644 33.549C146.109 33.549 147.353 33.3324 148.436 32.844V7.10035Z" fill="#F7DD43"/>
<path d="M172.387 25.3613H170.056V39.5072H161.223V0.488216H172.387C177.7 0.488216 181.709 1.57113 184.852 3.79217V22.0573C181.764 24.2274 177.696 25.3613 172.387 25.3613ZM176.074 7.20654C175.262 6.612 174.175 6.34021 172.332 6.34021H169.946V19.5093H172.332C174.12 19.5093 175.203 19.2375 176.074 18.6982V7.20654Z" fill="#F7DD43"/>
<path d="M203.329 39.5071V25.3613H196.827V39.5071H188.049V2.87061C191.247 0.972318 195.744 -0.000183105 200.08 -0.000183105C204.416 -0.000183105 208.858 0.976565 212.056 2.87061V39.5071H203.329ZM203.329 6.77335C202.408 6.34018 201.269 6.1236 200.076 6.1236C198.883 6.1236 197.745 6.34018 196.823 6.77335V19.1823H203.325V6.77335H203.329Z" fill="#F7DD43"/>
</svg>
